Coordinates
version=1
nRows=5
nColumns=40
inDegrees=yes

Units are S.I. units (second, meters, Newtons, ...)
If the header above contains a line with 'inDegrees', this indicates whether rotational values are in degrees (yes) or radians (no).

endheader
time	pelvis_tilt	pelvis_list	pelvis_rotation	pelvis_tx	pelvis_ty	pelvis_tz	hip_flexion_r	hip_adduction_r	hip_rotation_r	knee_angle_r	knee_angle_r_beta	ankle_angle_r	subtalar_angle_r	mtp_angle_r	hip_flexion_l	hip_adduction_l	hip_rotation_l	knee_angle_l	knee_angle_l_beta	ankle_angle_l	subtalar_angle_l	mtp_angle_l	lumbar_extension	lumbar_bending	lumbar_rotation	arm_flex_r	arm_add_r	arm_rot_r	elbow_flex_r	pro_sup_r	wrist_flex_r	wrist_dev_r	arm_flex_l	arm_add_l	arm_rot_l	elbow_flex_l	pro_sup_l	wrist_flex_l	wrist_dev_l
      0.35000000	      7.59115962	      4.97468912	     -9.03701306	     -0.75676283	      0.95312677	      0.21534935	     19.94812102	     -4.37331665	      3.66597305	     42.83768466	      0.74765864	     13.19337004	      0.00000000	      0.00000000	    -14.95656652	     10.71701710	      1.27496950	      2.43562243	      0.04250963	      8.09157041	      0.00000000	      0.00000000	    -19.88566376	     -4.46047075	     -9.18479254	     -7.34781832	    -11.59550418	      8.36924939	     29.86411871	     88.55813399	    -11.39162448	      0.36662048	      3.26146050	    -11.15470727	    -21.13597678	     49.60464948	     88.46952101	    -12.90958089	      3.42887898
      0.36000000	      7.74906065	      4.34031298	     -8.18281867	     -0.73942351	      0.95234942	      0.21442817	     19.90934012	     -3.86275055	      1.52011769	     38.44552568	      0.67100101	     13.19507571	      0.00000000	      0.00000000	    -16.61287868	     10.07995396	      1.41947917	      2.09780820	      0.03661366	      8.59450024	      0.00000000	      0.00000000	    -20.13892074	     -3.50863988	    -10.25177239	     -7.68610030	    -11.69847247	      8.20497459	     28.47873330	     88.48150922	    -12.60768302	      0.18332414	      4.04006891	    -11.48581352	    -22.13175299	     52.42809418	     88.31149386	    -11.63861850	      4.01077752
      0.37000000	      7.87051043	      3.71864989	     -7.36850893	     -0.72211283	      0.95127693	      0.21379684	     19.78725531	     -3.25009097	     -0.52492091	     33.89355774	      0.59155418	     12.87227222	      0.00000000	      0.00000000	    -18.13980331	      9.40148718	      1.48449842	      1.91415332	      0.03340828	      9.14062282	      0.00000000	      0.00000000	    -20.33729334	     -2.59294831	    -11.18878511	     -8.10782659	    -11.72233043	      7.61679964	     27.24778294	     88.40891938	    -13.83739277	      0.02220144	      4.78090106	    -11.84964794	    -22.84421558	     55.29942816	     88.12174713	    -10.73199784	      4.39738108
      0.38000000	      7.79920381	      3.18102005	     -6.69375629	     -0.70471774	      0.94959101	      0.21350112	     19.83645418	     -2.55053720	     -2.24732068	     29.39346898	      0.51301281	     12.22922909	      0.00000000	      0.00000000	    -19.35568754	      8.78722007	      1.34078992	      1.88649420	      0.03292554	      9.81860954	      0.00000000	      0.00000000	    -20.27545057	     -1.79042433	    -12.01404978	     -8.58970922	    -11.68069257	      6.55218070	     26.16947380	     88.37110946	    -14.79769799	     -0.11114505	      5.37165988	    -12.18441038	    -23.46711889	     58.23721681	     87.89477502	    -10.40223977	      4.43318994
      0.39000000	      7.69449007	      2.78812648	     -6.17396251	     -0.68732340	      0.94764095	      0.21367675	     19.88919157	     -1.83615328	     -3.40887528	     25.01674610	      0.43662459	     11.31186649	      0.00000000	      0.00000000	    -20.44199277	      8.30945440	      1.12571015	      1.98325273	      0.03461429	     10.27390756	      0.00000000	      0.00000000	    -20.11157405	     -1.23058647	    -12.62718672	     -9.08726652	    -11.54563449	      5.30639254	     25.04187365	     88.24864930	    -15.83246347	     -0.16566591	      5.93605104	    -12.51763498	    -23.92052512	     61.21869526	     87.65967693	    -10.12462925	      4.47666293
